<?xml version="1.0" encoding="utf-8"?>
<!-- Generator: Adobe Illustrator 16.0.0, SVG Export Plug-In . SVG Version: 6.00 Build 0)  -->
<!DOCTYPE svg PUBLIC "-//W3C//DTD SVG 1.1//EN" "http://www.w3.org/Graphics/SVG/1.1/DTD/svg11.dtd">
<svg version="1.1" id="Layer_1" xmlns="http://www.w3.org/2000/svg" xmlns:xlink="http://www.w3.org/1999/xlink" x="0px" y="0px"
	 width="500px" height="500px" viewBox="0 0 500 500" enable-background="new 0 0 500 500" xml:space="preserve">
<path fill="#65C1A4" d="M266,490.116c0,2.697-2.187,4.884-4.884,4.884h-0.232c-2.697,0-4.884-2.187-4.884-4.884v-95.232
	c0-2.697,2.187-4.884,4.884-4.884h0.232c2.697,0,4.884,2.187,4.884,4.884V490.116z"/>
<path fill="#65C1A4" d="M244,490.116c0,2.697-2.187,4.884-4.884,4.884h-0.232c-2.697,0-4.884-2.187-4.884-4.884v-95.232
	c0-2.697,2.187-4.884,4.884-4.884h0.232c2.697,0,4.884,2.187,4.884,4.884V490.116z"/>
<path fill="#65C1A4" d="M317.253,349.637c1.08,1.485,0.186,3.975-1.997,5.56l0,0c-2.182,1.585-4.826,1.665-5.906,0.179
	l-38.221-52.635c-1.079-1.486-0.185-3.976,1.997-5.562l0,0c2.184-1.585,4.827-1.664,5.907-0.179L317.253,349.637z"/>
<path fill="#65C1A4" d="M290.892,412.164c-0.744,1.68-3.347,2.154-5.813,1.06l0,0c-2.466-1.094-3.86-3.342-3.115-5.021
	l26.381-59.458c0.744-1.679,3.346-2.153,5.813-1.06l0,0c2.465,1.095,3.86,3.341,3.116,5.021L290.892,412.164z"/>
<path fill="#65C1A4" d="M182.131,349.637c-1.08,1.485-0.185,3.975,1.997,5.56l0,0c2.182,1.585,4.827,1.665,5.907,0.179l38.22-52.635
	c1.08-1.486,0.186-3.976-1.997-5.562l0,0c-2.183-1.585-4.827-1.664-5.907-0.179L182.131,349.637z"/>
<path fill="#65C1A4" d="M208.494,412.164c0.744,1.68,3.346,2.154,5.813,1.06l0,0c2.465-1.094,3.86-3.342,3.115-5.021l-26.381-59.458
	c-0.744-1.679-3.346-2.153-5.813-1.06l0,0c-2.465,1.095-3.86,3.341-3.116,5.021L208.494,412.164z"/>
<ellipse fill="#84D1B9" cx="249.917" cy="340.064" rx="36.54" ry="71.634"/>
<path fill="#65A08D" d="M219.376,342.064c0-39.563,16.359-71.633,36.54-71.633c1.076,0,2.14,0.11,3.192,0.289
	c-2.938-1.492-6.018-2.289-9.192-2.289c-20.18,0-36.54,32.07-36.54,71.633c0,37.451,14.664,68.172,33.348,71.345
	C230.994,403.418,219.376,375.401,219.376,342.064z"/>
<path fill="#A0E0CE" d="M354.833,109.25c0,57.944-46.973,164.248-104.917,164.248C191.973,273.497,145,167.193,145,109.25
	C145,51.306,191.973,4.333,249.916,4.333C307.86,4.333,354.833,51.306,354.833,109.25z"/>
<path fill="#80B2A3" d="M161,117.25c0-57.943,46.973-104.916,104.916-104.916c13.663,0,26.715,2.614,38.686,7.365
	c-15.925-9.746-34.648-15.365-54.686-15.365C191.973,4.333,145,51.306,145,109.25c0,52.556,38.643,144.892,89.065,161.611
	C191.695,242.515,161,164.088,161,117.25z"/>
<path fill="#09423F" d="M237.823,143.988c-5.044,13.473-20.054,20.306-33.527,15.262c-13.473-5.044-50.8-31.47-45.756-44.943
	c5.044-13.473,50.548-8.89,64.021-3.847C236.034,115.504,242.867,130.515,237.823,143.988z"/>
<path fill="#09423F" d="M262.728,143.975c-5.039-13.475,1.8-28.483,15.274-33.522c13.475-5.04,58.98-9.606,64.019,3.869
	c5.039,13.475-32.296,39.888-45.771,44.927C282.775,164.288,267.768,157.449,262.728,143.975z"/>
</svg>
