<?xml version="1.0" encoding="utf-8"?>
<!-- Generator: Adobe Illustrator 16.0.0, SVG Export Plug-In . SVG Version: 6.00 Build 0)  -->
<!DOCTYPE svg PUBLIC "-//W3C//DTD SVG 1.1//EN" "http://www.w3.org/Graphics/SVG/1.1/DTD/svg11.dtd">
<svg version="1.1" id="Layer_1" xmlns="http://www.w3.org/2000/svg" xmlns:xlink="http://www.w3.org/1999/xlink" x="0px" y="0px"
	 width="500px" height="500px" viewBox="0 0 500 500" enable-background="new 0 0 500 500" xml:space="preserve">
<g>
	<polygon display="none" fill="#B72C2C" points="80.167,183.432 6.01,212.248 57.305,273.061 131.461,244.244 	"/>
	<polygon display="none" fill="#B72C2C" points="75.128,222.688 5.887,261.868 65.396,314.672 134.636,275.491 	"/>
	<polygon display="none" fill="#B72C2C" points="356.855,318.276 494.176,249.617 434.162,393.55 	"/>
	<polygon display="none" fill="#D84848" points="485.738,269.854 494.176,249.617 356.855,318.276 367.725,328.859 	"/>
	<g display="none">
		<path display="inline" fill="#7CC300" d="M310.975,180.958c-24.384-44.839-71.903-75.274-126.533-75.274
			c-79.492,0-143.933,64.441-143.933,143.933c0,79.492,64.44,143.933,143.933,143.933h249.721L310.975,180.958z"/>
	</g>
	<g display="none">
		<path display="inline" fill="#A6D63C" d="M175.795,124.747c54.629,0,102.149,30.66,126.533,75.499L414.471,394h19.691
			L310.975,181.184c-24.384-44.839-71.903-75.387-126.533-75.387c-62.018,0-114.87,39.171-135.11,94.164
			C73.732,155.188,121.214,124.747,175.795,124.747z"/>
	</g>
	<g>
		<path fill="#B72C2C" d="M278.014,210.196c-22.301-10.653-49.578-9.086-70.996,6.434c-31.166,22.582-38.125,66.154-15.542,97.32
			c22.583,31.166,66.154,38.122,97.322,15.54l97.905-70.939L278.014,210.196z"/>
	</g>
	<g>
		<path fill="#D84848" d="M210.359,229.438c21.418-15.52,48.695-17.087,70.996-6.434l95.666,42.562l9.682-7.015l-108.688-48.354
			c-22.301-10.653-49.578-9.086-70.996,6.434c-25.82,18.708-35.004,51.817-24.562,80.35
			C178.416,271.84,188.331,245.397,210.359,229.438z"/>
	</g>
	<circle display="none" fill="#2C5E00" cx="122.288" cy="210.216" r="25.936"/>
</g>
</svg>
