<?xml version="1.0" encoding="utf-8"?>
<!-- Generator: Adobe Illustrator 16.0.0, SVG Export Plug-In . SVG Version: 6.00 Build 0)  -->
<!DOCTYPE svg PUBLIC "-//W3C//DTD SVG 1.1//EN" "http://www.w3.org/Graphics/SVG/1.1/DTD/svg11.dtd">
<svg version="1.1" id="Layer_1" xmlns="http://www.w3.org/2000/svg" xmlns:xlink="http://www.w3.org/1999/xlink" x="0px" y="0px"
	 width="1920px" height="540px" viewBox="0 0 1920 540" enable-background="new 0 0 1920 540" xml:space="preserve">
<linearGradient id="SVGID_1_" gradientUnits="userSpaceOnUse" x1="959.0005" y1="541" x2="959.0005" y2="1.0005">
	<stop  offset="0" style="stop-color:#6BA5C6"/>
	<stop  offset="0.4504" style="stop-color:#3884AF"/>
	<stop  offset="0.8063" style="stop-color:#176FA1"/>
	<stop  offset="1" style="stop-color:#0A679B"/>
</linearGradient>
<rect x="-1" y="1" display="none" fill="url(#SVGID_1_)" width="1920" height="540"/>
<g id="Cloud1" display="none" opacity="0.7">
	<ellipse display="inline" fill="#FFFFFF" cx="175.624" cy="70.474" rx="40.26" ry="28.643"/>
	<ellipse display="inline" fill="#FFFFFF" cx="206.792" cy="92.649" rx="31.169" ry="22.174"/>
	<ellipse display="inline" fill="#FFFFFF" cx="253.545" cy="109.281" rx="31.169" ry="16.631"/>
	<ellipse display="inline" fill="#FFFFFF" cx="118.481" cy="105.585" rx="42.857" ry="28.643"/>
	<ellipse display="inline" fill="#FFFFFF" cx="186.013" cy="121.292" rx="58.442" ry="22.175"/>
	<ellipse display="inline" fill="#FFFFFF" cx="160.688" cy="103.737" rx="18.831" ry="11.087"/>
</g>
<g id="Cloud2" display="none" opacity="0.7">
	<ellipse display="inline" fill="#FFFFFF" cx="481.11" cy="162.722" rx="75.422" ry="15.286"/>
	<ellipse display="inline" fill="#FFFFFF" cx="547.669" cy="141.52" rx="64.708" ry="15.778"/>
	<ellipse display="inline" fill="#FFFFFF" cx="620.932" cy="117.359" rx="73.263" ry="19.23"/>
	<ellipse display="inline" fill="#FFFFFF" cx="617.587" cy="144.927" rx="41.543" ry="12.371"/>
	<ellipse display="inline" fill="#FFFFFF" cx="675.364" cy="134.37" rx="35.714" ry="17.011"/>
	<ellipse display="inline" fill="#FFFFFF" cx="711.403" cy="159.763" rx="36.039" ry="18.244"/>
	<ellipse display="inline" fill="#FFFFFF" cx="611.955" cy="159.763" rx="82.24" ry="23.174"/>
</g>
<g id="Cloud3" display="none" opacity="0.7">
	<ellipse display="inline" fill="#FFFFFF" cx="1044.552" cy="107.087" rx="62.76" ry="30.235"/>
	<ellipse display="inline" fill="#FFFFFF" cx="1114.325" cy="78.685" rx="43.636" ry="24.738"/>
	<ellipse display="inline" fill="#FFFFFF" cx="1133.367" cy="113.5" rx="79.302" ry="23.822"/>
	<ellipse display="inline" fill="#FFFFFF" cx="1158.156" cy="95.177" rx="36.559" ry="18.325"/>
	<ellipse display="inline" fill="#FFFFFF" cx="1206.013" cy="90.595" rx="48.052" ry="8.246"/>
	<ellipse display="inline" fill="#FFFFFF" cx="1226.24" cy="104.338" rx="68.084" ry="9.162"/>
	<ellipse display="inline" fill="#FFFFFF" cx="1220.217" cy="117.166" rx="74.107" ry="12.827"/>
	<ellipse display="inline" fill="#FFFFFF" cx="982.117" cy="122.205" rx="46.428" ry="15.118"/>
</g>
<g id="Cloud4" display="none" opacity="0.7">
	<ellipse display="inline" fill="#FFFFFF" cx="1557.967" cy="123.558" rx="47.175" ry="31.108"/>
	<ellipse display="inline" fill="#FFFFFF" cx="1598.017" cy="149.967" rx="40.049" ry="26.409"/>
	<ellipse display="inline" fill="#FFFFFF" cx="1655.476" cy="163.171" rx="57.459" ry="13.205"/>
	<ellipse display="inline" fill="#FFFFFF" cx="1736.287" cy="141.084" rx="75.3" ry="22.087"/>
	<ellipse display="inline" fill="#FFFFFF" cx="1634.641" cy="132.618" rx="54.173" ry="25.61"/>
	<ellipse display="inline" fill="#FFFFFF" cx="1623.595" cy="102.685" rx="43.127" ry="29.933"/>
	<ellipse display="inline" fill="#FFFFFF" cx="1712.819" cy="118.569" rx="73.225" ry="26.12"/>
	<ellipse display="inline" fill="#FFFFFF" cx="1725.432" cy="95.875" rx="36.612" ry="11.133"/>
	<ellipse display="inline" fill="#FFFFFF" cx="1681.117" cy="101.656" rx="31.818" ry="16.914"/>
</g>
<path id="Ground" fill="#5E8E5A" d="M-1.25,360.5c0,0,439.041-169.186,982.742-0.25S1849.657,375.67,1918,360c0,58.336,0,182,0,182
	H-1L-1.25,360.5z"/>
</svg>
