<?xml version="1.0" encoding="utf-8"?>
<!-- Generator: Adobe Illustrator 16.0.0, SVG Export Plug-In . SVG Version: 6.00 Build 0)  -->
<!DOCTYPE svg PUBLIC "-//W3C//DTD SVG 1.1//EN" "http://www.w3.org/Graphics/SVG/1.1/DTD/svg11.dtd">
<svg version="1.1" id="Layer_1" xmlns="http://www.w3.org/2000/svg" xmlns:xlink="http://www.w3.org/1999/xlink" x="0px" y="0px"
	 width="200px" height="200px" viewBox="0 0 200 200" enable-background="new 0 0 200 200" xml:space="preserve">
<circle fill="#E0D73B" cx="100" cy="100" r="100"/>
<ellipse fill="#E2C64D" cx="100.25" cy="100.25" rx="92.3" ry="94.666"/>
<path fill="#EFD76F" d="M100.25,5.583c-1.341,0-2.673,0.036-4,0.094c49.119,2.149,88.3,43.665,88.3,94.573
	c0,50.907-39.181,92.423-88.3,94.572c1.327,0.058,2.659,0.094,4,0.094c50.976,0,92.3-42.384,92.3-94.666
	C192.55,47.967,151.226,5.583,100.25,5.583z"/>
<circle fill="#E0B64C" cx="100" cy="100" r="70.141"/>
<circle fill="#DDD64E" cx="99.625" cy="99.625" r="64.516"/>
<path fill="#E8E292" d="M99.625,35.109c-3.975,0-7.859,0.378-11.635,1.066c0.875-0.035,1.751-0.066,2.635-0.066
	c35.631,0,64.516,28.884,64.516,64.516c0,31.656-22.807,57.968-52.881,63.449c34.408-1.385,61.881-29.702,61.881-64.449
	C164.141,63.994,135.256,35.109,99.625,35.109z"/>
</svg>
