<?xml version="1.0" encoding="utf-8"?>
<!-- Generator: Adobe Illustrator 16.0.0, SVG Export Plug-In . SVG Version: 6.00 Build 0)  -->
<!DOCTYPE svg PUBLIC "-//W3C//DTD SVG 1.1//EN" "http://www.w3.org/Graphics/SVG/1.1/DTD/svg11.dtd">
<svg version="1.1" id="Layer_1" xmlns="http://www.w3.org/2000/svg" xmlns:xlink="http://www.w3.org/1999/xlink" x="0px" y="0px"
	 width="1920px" height="1080px" viewBox="0 0 1920 1080" enable-background="new 0 0 1920 1080" xml:space="preserve">
<linearGradient id="Grass_1_" gradientUnits="userSpaceOnUse" x1="960.0005" y1="582" x2="960.0005" y2="542">
	<stop  offset="0" style="stop-color:#00D400"/>
	<stop  offset="0.4471" style="stop-color:#00D200"/>
	<stop  offset="0.6081" style="stop-color:#00CB01"/>
	<stop  offset="0.7229" style="stop-color:#01C003"/>
	<stop  offset="0.8157" style="stop-color:#01AF05"/>
	<stop  offset="0.8952" style="stop-color:#029907"/>
	<stop  offset="0.9643" style="stop-color:#037E0B"/>
	<stop  offset="1" style="stop-color:#036D0D"/>
</linearGradient>
<polygon id="Grass" fill="url(#Grass_1_)" points="1920,542 1920,562.131 1915.648,552.196 1904.982,572.615 1909.648,551.644 
	1902.316,557.438 1893.648,572.615 1897.648,557.438 1887.648,562.131 1880.982,557.438 1884.982,572.615 1871.648,557.438 
	1858.982,572.615 1866.982,557.438 1840.316,572.615 1858.982,557.438 1840.316,562.131 1816.316,557.438 1824.982,567.098 
	1802.982,557.438 1809.824,572.615 1798,557.438 1798,572.065 1790.982,557.438 1780.316,572.615 1786.316,557.438 
	1760.316,572.615 1777.648,557.438 1760.316,562.131 1756.324,557.438 1753,572.615 1753,557.164 1742.316,572.615 
	1746.982,557.438 1734.982,562.131 1725.648,557.438 1729.491,572.615 1718,557.438 1718,568.754 1707.158,557.438 1702,572.615 
	1702,557.164 1687.648,572.615 1694.982,557.438 1676.982,572.615 1688.316,557.438 1672.991,562.131 1667,557.438 1667,572.065 
	1663.491,557.438 1656,572.615 1656,557.164 1644.316,572.615 1649.648,557.438 1638.316,562.131 1631.648,557.438 
	1636.158,572.615 1624,557.438 1624,568.754 1619,557.438 1619,572.065 1613.648,557.438 1604.982,572.615 1607.648,557.438 
	1592.982,572.615 1601.648,557.438 1578.316,572.615 1591.648,557.438 1575.824,562.131 1568,557.438 1568,572.065 
	1564.324,557.438 1561,572.615 1561,557.164 1544.316,572.615 1554.316,557.438 1544.491,562.131 1538,557.438 1538,572.065 
	1533.158,557.438 1530,572.615 1530,557.164 1520.982,572.615 1525.648,557.438 1509.648,572.615 1520.316,557.438 
	1493.648,572.615 1513.648,557.438 1497.648,562.131 1498.316,557.438 1488.824,562.131 1484,557.438 1484,572.065 
	1479.648,557.438 1471.648,562.131 1462.982,557.438 1473.648,572.615 1450.982,557.438 1456.324,572.615 1445,557.438 
	1445,567.098 1440.324,557.438 1435,572.615 1435,557.164 1406.982,572.615 1420.316,557.438 1396.982,572.615 1410.991,557.438 
	1397,562.131 1397,557.164 1389,562.131 1389,557.164 1384,572.615 1384,557.164 1379.648,562.131 1371.648,557.438 
	1375.824,572.615 1366,557.438 1366,568.754 1354.316,557.438 1356.982,572.615 1348.982,557.438 1329.648,572.615 
	1340.982,557.438 1316.982,572.615 1331.648,557.438 1317.158,562.131 1308,557.438 1308,572.065 1303,557.438 1303,572.065 
	1285.648,557.438 1294.158,572.615 1278,557.438 1278,572.065 1273.658,557.438 1269,572.615 1269,557.164 1254.982,572.615 
	1262.982,557.438 1239.648,572.615 1252.982,557.438 1228.982,572.615 1246.316,557.438 1232.316,562.131 1217.648,557.438 
	1220.982,572.615 1212.982,557.438 1216.316,572.615 1199.648,557.438 1206.491,572.615 1194,557.438 1194,572.065 
	1189.495,557.438 1184,572.615 1184,557.164 1174.99,572.615 1180.495,557.438 1172,562.131 1172,557.164 1165.828,562.131 
	1162,557.438 1162,562.131 1155.656,557.438 1165.656,572.615 1149.656,557.438 1152.995,572.615 1145,557.438 1145,572.065 
	1138.99,557.438 1128.99,572.615 1132.99,557.438 1120.99,572.615 1127.662,557.438 1115,572.615 1115,557.164 1110.162,562.131 
	1104,557.438 1104,572.065 1099.656,557.438 1088.323,572.615 1094.99,557.438 1083.656,562.131 1086.323,557.438 1072.323,572.615 
	1078.99,557.438 1069.656,562.131 1057.656,557.438 1064.99,572.615 1050.99,557.438 1055.828,572.615 1046,557.438 1046,572.065 
	1042.328,557.438 1035,572.615 1035,557.164 1028,562.131 1028,557.164 1022,562.131 1022,557.164 1017,581.447 1017,555.508 
	1009.656,562.131 1003.656,556.058 1006.99,581.447 1000.328,556.058 995,573.721 995,555.508 979.656,574.824 989.656,553.852 
	962.99,574.824 975.656,556.058 960,562.131 948.99,556.058 955.661,581.447 945,557.164 945,573.721 941,557.164 941,582 
	938.323,556.058 920.99,574.824 928.99,557.164 913.659,568.201 908.992,557.164 902.163,567.098 890,557.164 890,577.033 
	885.162,556.058 882,575.927 882,555.508 864.992,575.927 874.326,556.058 848.992,582 858.326,562.131 851.659,557.164 
	845.83,562.131 842,556.058 842,575.377 838.992,562.131 822.992,575.927 832.992,557.164 815.659,574.824 824.992,553.852 
	815.659,562.131 800.992,554.955 804.326,575.927 794.992,557.164 781.657,567.098 785.657,556.058 774.162,562.131 758,556.058 
	758,570.41 741.657,556.058 747.657,569.304 728.323,554.955 716.99,572.615 721.657,556.058 697.657,570.41 710.323,556.058 
	692.162,562.131 678,556.058 678,572.065 673.162,556.058 664,570.41 664,557.164 658.323,562.131 653.657,554.955 644.162,562.131 
	640,557.164 640,575.377 631,554.955 631,572.065 626.99,556.058 596.323,574.824 614.99,554.955 598.99,562.131 589.657,557.164 
	584.99,562.131 588.323,574.824 575.657,562.131 569.657,557.164 564.323,562.131 560.323,556.058 547.657,575.927 552.498,556.058 
	544,562.131 544,552.196 532.324,562.131 521,554.955 521,570.41 516,553.852 516,575.377 510.316,554.955 498.316,573.721 
	502.316,554.955 490.316,562.131 482.983,554.955 475.824,562.131 470,556.058 470,572.065 463,557.164 463,570.41 450.316,554.955 
	428.983,572.615 438.983,557.164 412.983,567.098 425.649,554.955 405.491,562.131 394,557.164 394,577.033 389.824,554.955 
	386,575.927 386,558.819 376.316,562.131 370.316,554.955 354.316,577.033 363.649,556.058 346.983,567.098 354.983,554.955 
	328.983,582 346.316,556.058 337.648,562.131 335.656,556.058 329,569.304 329,555.508 320,572.615 320,555.508 310.981,562.131 
	300.315,554.955 307.658,575.927 295,553.852 295,573.721 290,554.955 290,568.754 285.824,556.058 280,562.131 280,555.508 
	263.648,572.615 270.981,556.058 255.648,570.41 262.315,557.164 255.648,562.131 251.648,556.058 244.315,562.131 239.648,556.058 
	224.315,569.304 230.315,554.955 198.981,574.824 218.315,554.955 201.824,562.131 186,557.164 186,575.377 180.99,554.955 
	175,567.098 175,555.508 169.157,582 164,556.058 164,575.377 160,554.955 160,575.377 142.315,556.058 132.315,562.131 
	129.49,554.955 120,575.927 120,555.508 92.981,574.824 108.981,556.058 92.981,562.131 85.646,553.852 78.979,562.131 
	70.313,573.721 75.156,557.164 68,562.131 68,553.852 62.313,562.131 52.313,553.852 54.979,572.615 47.489,557.164 40,568.201 
	40,553.852 28.313,571.513 35.156,552.746 22,562.131 22,552.196 17,562.131 17,552.196 10,562.131 10,552.196 7,562.131 
	3.75,550.954 0,562.131 0,542 "/>
<g id="Road">
	<linearGradient id="SVGID_1_" gradientUnits="userSpaceOnUse" x1="960.0005" y1="542" x2="960.0005" y2="520.0005">
		<stop  offset="0" style="stop-color:#333333"/>
		<stop  offset="1" style="stop-color:#282828"/>
	</linearGradient>
	<rect y="520" fill="url(#SVGID_1_)" width="1920" height="22"/>
	<line fill="none" stroke="#707070" stroke-width="2" stroke-miterlimit="10" x1="18.976" y1="540.976" x2="34.543" y2="521.308"/>
	<line fill="none" stroke="#707070" stroke-width="2" stroke-miterlimit="10" x1="65.976" y1="540.976" x2="81.543" y2="521.308"/>
	
		<line fill="none" stroke="#707070" stroke-width="2" stroke-miterlimit="10" x1="115.976" y1="540.976" x2="131.543" y2="521.308"/>
	
		<line fill="none" stroke="#707070" stroke-width="2" stroke-miterlimit="10" x1="162.976" y1="540.976" x2="178.543" y2="521.308"/>
	
		<line fill="none" stroke="#707070" stroke-width="2" stroke-miterlimit="10" x1="210.976" y1="540.976" x2="226.543" y2="521.308"/>
	
		<line fill="none" stroke="#707070" stroke-width="2" stroke-miterlimit="10" x1="257.976" y1="540.976" x2="273.543" y2="521.308"/>
	
		<line fill="none" stroke="#707070" stroke-width="2" stroke-miterlimit="10" x1="307.976" y1="540.976" x2="323.543" y2="521.308"/>
	
		<line fill="none" stroke="#707070" stroke-width="2" stroke-miterlimit="10" x1="354.976" y1="540.976" x2="370.543" y2="521.308"/>
	
		<line fill="none" stroke="#707070" stroke-width="2" stroke-miterlimit="10" x1="403.976" y1="540.976" x2="419.543" y2="521.308"/>
	
		<line fill="none" stroke="#707070" stroke-width="2" stroke-miterlimit="10" x1="450.976" y1="540.976" x2="466.543" y2="521.308"/>
	
		<line fill="none" stroke="#707070" stroke-width="2" stroke-miterlimit="10" x1="500.976" y1="540.976" x2="516.543" y2="521.308"/>
	
		<line fill="none" stroke="#707070" stroke-width="2" stroke-miterlimit="10" x1="547.976" y1="540.976" x2="563.543" y2="521.308"/>
	
		<line fill="none" stroke="#707070" stroke-width="2" stroke-miterlimit="10" x1="595.976" y1="540.976" x2="611.543" y2="521.308"/>
	
		<line fill="none" stroke="#707070" stroke-width="2" stroke-miterlimit="10" x1="642.976" y1="540.976" x2="658.543" y2="521.308"/>
	
		<line fill="none" stroke="#707070" stroke-width="2" stroke-miterlimit="10" x1="692.976" y1="540.976" x2="708.543" y2="521.308"/>
	
		<line fill="none" stroke="#707070" stroke-width="2" stroke-miterlimit="10" x1="739.976" y1="540.976" x2="755.543" y2="521.308"/>
	
		<line fill="none" stroke="#707070" stroke-width="2" stroke-miterlimit="10" x1="787.976" y1="540.976" x2="803.543" y2="521.309"/>
	
		<line fill="none" stroke="#707070" stroke-width="2" stroke-miterlimit="10" x1="834.976" y1="540.976" x2="850.543" y2="521.309"/>
	
		<line fill="none" stroke="#707070" stroke-width="2" stroke-miterlimit="10" x1="884.976" y1="540.976" x2="900.543" y2="521.309"/>
	
		<line fill="none" stroke="#707070" stroke-width="2" stroke-miterlimit="10" x1="931.976" y1="540.976" x2="947.543" y2="521.309"/>
	
		<line fill="none" stroke="#707070" stroke-width="2" stroke-miterlimit="10" x1="979.976" y1="540.976" x2="995.543" y2="521.309"/>
	
		<line fill="none" stroke="#707070" stroke-width="2" stroke-miterlimit="10" x1="1026.976" y1="540.976" x2="1042.543" y2="521.309"/>
	
		<line fill="none" stroke="#707070" stroke-width="2" stroke-miterlimit="10" x1="1076.976" y1="540.976" x2="1092.543" y2="521.309"/>
	
		<line fill="none" stroke="#707070" stroke-width="2" stroke-miterlimit="10" x1="1123.976" y1="540.976" x2="1139.543" y2="521.309"/>
	
		<line fill="none" stroke="#707070" stroke-width="2" stroke-miterlimit="10" x1="1172.976" y1="540.976" x2="1188.543" y2="521.309"/>
	
		<line fill="none" stroke="#707070" stroke-width="2" stroke-miterlimit="10" x1="1219.976" y1="540.976" x2="1235.543" y2="521.309"/>
	
		<line fill="none" stroke="#707070" stroke-width="2" stroke-miterlimit="10" x1="1269.976" y1="540.976" x2="1285.543" y2="521.309"/>
	
		<line fill="none" stroke="#707070" stroke-width="2" stroke-miterlimit="10" x1="1316.976" y1="540.976" x2="1332.543" y2="521.309"/>
	
		<line fill="none" stroke="#707070" stroke-width="2" stroke-miterlimit="10" x1="1364.976" y1="540.976" x2="1380.543" y2="521.309"/>
	
		<line fill="none" stroke="#707070" stroke-width="2" stroke-miterlimit="10" x1="1411.976" y1="540.976" x2="1427.543" y2="521.309"/>
	
		<line fill="none" stroke="#707070" stroke-width="2" stroke-miterlimit="10" x1="1461.976" y1="540.976" x2="1477.543" y2="521.309"/>
	
		<line fill="none" stroke="#707070" stroke-width="2" stroke-miterlimit="10" x1="1508.976" y1="540.976" x2="1524.543" y2="521.309"/>
	
		<line fill="none" stroke="#707070" stroke-width="2" stroke-miterlimit="10" x1="1557.976" y1="540.976" x2="1573.543" y2="521.309"/>
	
		<line fill="none" stroke="#707070" stroke-width="2" stroke-miterlimit="10" x1="1607.976" y1="540.976" x2="1623.543" y2="521.309"/>
	
		<line fill="none" stroke="#707070" stroke-width="2" stroke-miterlimit="10" x1="1654.976" y1="540.976" x2="1670.543" y2="521.309"/>
	
		<line fill="none" stroke="#707070" stroke-width="2" stroke-miterlimit="10" x1="1892.976" y1="540.976" x2="1908.543" y2="521.309"/>
	
		<line fill="none" stroke="#707070" stroke-width="2" stroke-miterlimit="10" x1="1700.976" y1="540.976" x2="1716.543" y2="521.309"/>
	
		<line fill="none" stroke="#707070" stroke-width="2" stroke-miterlimit="10" x1="1747.976" y1="540.976" x2="1763.543" y2="521.309"/>
	
		<line fill="none" stroke="#707070" stroke-width="2" stroke-miterlimit="10" x1="1797.976" y1="540.976" x2="1813.543" y2="521.309"/>
	
		<line fill="none" stroke="#707070" stroke-width="2" stroke-miterlimit="10" x1="1844.976" y1="540.976" x2="1860.543" y2="521.309"/>
</g>
</svg>
