<?xml version="1.0" encoding="utf-8"?>
<!-- Generator: Adobe Illustrator 16.0.0, SVG Export Plug-In . SVG Version: 6.00 Build 0)  -->
<!DOCTYPE svg PUBLIC "-//W3C//DTD SVG 1.1//EN" "http://www.w3.org/Graphics/SVG/1.1/DTD/svg11.dtd">
<svg version="1.1" id="Layer_1" xmlns="http://www.w3.org/2000/svg" xmlns:xlink="http://www.w3.org/1999/xlink" x="0px" y="0px"
	 width="500px" height="500px" viewBox="0 0 500 500" enable-background="new 0 0 500 500" xml:space="preserve">
<path fill="#846356" d="M196.655,366.553c-0.44,2.775-3.047,4.67-5.825,4.23l-0.295-0.046c-2.778-0.441-4.672-3.052-4.231-5.827
	l12.197-76.906c0.44-2.777,3.049-4.672,5.826-4.232l0.296,0.049c2.778,0.439,4.672,3.049,4.231,5.825L196.655,366.553z"/>
<path fill="#846356" d="M240,485.075c0,2.72-2.204,4.925-4.924,4.925h-0.152c-2.72,0-4.924-2.205-4.924-4.925v-118.15
	c0-2.72,2.204-4.925,4.924-4.925h0.152c2.72,0,4.924,2.205,4.924,4.925V485.075z"/>
<path fill="#846356" d="M270,485.861c0,2.791-2.207,5.057-5,5.057l0,0c-2.795,0-5-2.266-5-5.057V367.398
	c0-2.791,2.205-5.057,5-5.057l0,0c2.793,0,5,2.266,5,5.057V485.861z"/>
<path fill="#846356" d="M220.951,439.176c0.875,2.671-0.583,5.547-3.256,6.421l-0.286,0.094c-2.672,0.875-5.548-0.585-6.421-3.257
	l-24.204-74.012c-0.874-2.673,0.584-5.546,3.255-6.421l0.286-0.093c2.673-0.875,5.548,0.583,6.421,3.256L220.951,439.176z"/>
<path fill="#846356" d="M303.033,366.553c0.439,2.775,3.049,4.67,5.825,4.23l0.298-0.046c2.775-0.441,4.67-3.052,4.229-5.827
	l-12.196-76.906c-0.439-2.777-3.048-4.672-5.826-4.232l-0.296,0.049c-2.777,0.439-4.672,3.049-4.229,5.825L303.033,366.553z"/>
<path fill="#846356" d="M278.739,439.176c-0.875,2.671,0.583,5.547,3.254,6.421l0.286,0.094c2.673,0.875,5.547-0.585,6.421-3.257
	l24.204-74.012c0.875-2.673-0.583-5.546-3.254-6.421l-0.288-0.093c-2.671-0.875-5.547,0.583-6.419,3.256L278.739,439.176z"/>
<ellipse fill="#A0775C" cx="249.908" cy="311.637" rx="51.316" ry="57.974"/>
<g display="none">
	<path display="inline" fill="#A0774F" d="M126.498,102.93c0,0-12.393-34.482-48.491-36.099
		c-36.098-1.617-69.502,52.8-41.486,95.364c28.017,42.563,89.977,14.547,89.977,14.547V102.93z"/>
	<path display="inline" fill="#F0D7C6" d="M113.846,115.527c0,0-7-19.479-27.393-20.393c-20.391-0.912-39.262,29.828-23.435,53.872
		c15.827,24.045,50.828,8.218,50.828,8.218V115.527z"/>
	<path display="inline" fill="#A0774F" d="M373.258,102.93c0,0,12.391-34.482,48.489-36.099c36.098-1.617,69.502,52.8,41.485,95.364
		c-28.018,42.563-89.975,14.547-89.975,14.547V102.93z"/>
	<path display="inline" fill="#F0D7C6" d="M385.906,115.527c0,0,7.001-19.479,27.393-20.393
		c20.391-0.912,39.264,29.828,23.438,53.872c-15.827,24.045-50.83,8.218-50.83,8.218V115.527z"/>
	<path display="inline" fill="#F8DBCB" d="M249.876,9.182C136.733,7.026,83.396,110.471,107.639,184.284
		c24.246,73.813,142.237,77.045,142.237,77.045s117.991-3.232,142.238-77.045C416.357,110.471,363.018,7.026,249.876,9.182z"/>
	<circle display="inline" fill="#FFFFFF" cx="190.073" cy="81.917" r="15.085"/>
	<circle display="inline" fill="#5A4A42" cx="190.072" cy="81.917" r="8.383"/>
	<ellipse display="inline" fill="#E39B9F" cx="140.505" cy="127.173" rx="28.555" ry="16.163"/>
	<path display="inline" fill="#A0774F" d="M249.876,9.182C170.775,7.676,120.955,57.789,106.392,113.3
		c10.876-12.904,28.664-25.917,48.66-8.215c0,0-5.991-42.026,26.637-57.111c32.627-15.085,63.339,15.085,68.187,29.095
		c4.851-14.01,35.562-44.18,68.187-29.095c32.63,15.085,26.638,57.111,26.638,57.111c19.995-17.702,37.787-4.689,48.663,8.215
		C378.798,57.789,328.978,7.676,249.876,9.182z"/>
	<circle display="inline" fill="#FFFFFF" cx="309.681" cy="81.917" r="15.086"/>
	<path display="inline" fill="#5A4A42" d="M318.063,81.917c0-4.63-3.754-8.383-8.381-8.383c-4.631,0-8.386,3.753-8.386,8.383
		c0,4.629,3.755,8.383,8.386,8.383C314.309,90.299,318.063,86.546,318.063,81.917z"/>
	<ellipse display="inline" fill="#E39B9F" cx="359.249" cy="127.173" rx="28.556" ry="16.163"/>
	<path display="inline" fill="#5A4A42" d="M249.876,203.141c-16.636,0-27.947,14.547,0,14.547
		C277.824,217.688,266.514,203.141,249.876,203.141z"/>
	<path display="inline" fill="#5A4A42" d="M248.262,261.26c1.025,0.05,1.614,0.069,1.614,0.069s0.59-0.02,1.618-0.069v-49.858
		h-3.232V261.26z"/>
</g>
</svg>
