<?xml version="1.0" encoding="utf-8"?>
<!-- Generator: Adobe Illustrator 16.0.0, SVG Export Plug-In . SVG Version: 6.00 Build 0)  -->
<!DOCTYPE svg PUBLIC "-//W3C//DTD SVG 1.1//EN" "http://www.w3.org/Graphics/SVG/1.1/DTD/svg11.dtd">
<svg version="1.1" id="Layer_1" xmlns="http://www.w3.org/2000/svg" xmlns:xlink="http://www.w3.org/1999/xlink" x="0px" y="0px"
	 width="1920px" height="540px" viewBox="0 0 1920 540" enable-background="new 0 0 1920 540" xml:space="preserve">
<linearGradient id="SVGID_1_" gradientUnits="userSpaceOnUse" x1="960.0005" y1="541.0547" x2="960.0005" y2="0.9458">
	<stop  offset="0" style="stop-color:#852D91"/>
	<stop  offset="0.2139" style="stop-color:#802D91"/>
	<stop  offset="0.4717" style="stop-color:#712D90"/>
	<stop  offset="0.7509" style="stop-color:#592D8E"/>
	<stop  offset="1" style="stop-color:#3D2D8C"/>
</linearGradient>
<polygon fill="url(#SVGID_1_)" points="1920.016,540.945 0.015,541.055 -0.015,1.055 1919.984,0.945 "/>
<g>
	<g>
		<path fill="#FFFFFF" d="M445.616,65.601c3.224,0,3.224-5,0-5S442.392,65.601,445.616,65.601L445.616,65.601z"/>
	</g>
</g>
<g>
	<g>
		<path fill="#FFFFFF" d="M124.632,100.099c3.224,0,3.224-5,0-5S121.408,100.099,124.632,100.099L124.632,100.099z"/>
	</g>
</g>
<g>
	<g>
		<path fill="#FFFFFF" d="M700.604,166.096c3.225,0,3.225-5,0-5S697.379,166.096,700.604,166.096L700.604,166.096z"/>
	</g>
</g>
<g>
	<g>
		<path fill="#FFFFFF" d="M303.124,104.599c3.224,0,3.224-5,0-5S299.899,104.599,303.124,104.599L303.124,104.599z"/>
	</g>
</g>
<g>
	<g>
		<path fill="#FFFFFF" d="M1102.584,124.098c3.225,0,3.225-5,0-5S1099.359,124.098,1102.584,124.098L1102.584,124.098z"/>
	</g>
</g>
<g>
	<g>
		<path fill="#FFFFFF" d="M384.12,208.094c3.224,0,3.224-5,0-5S380.896,208.094,384.12,208.094L384.12,208.094z"/>
	</g>
</g>
<g>
	<g>
		<path fill="#FFFFFF" d="M987.09,86.6c3.225,0,3.225-5,0-5S983.865,86.6,987.09,86.6L987.09,86.6z"/>
	</g>
</g>
<g>
	<g>
		<path fill="#FFFFFF" d="M1654.556,283.09c3.225,0,3.225-5,0-5S1651.331,283.09,1654.556,283.09L1654.556,283.09z"/>
	</g>
</g>
<g>
	<g>
		<path fill="#FFFFFF" d="M1345.571,164.596c3.225,0,3.225-5,0-5S1342.347,164.596,1345.571,164.596L1345.571,164.596z"/>
	</g>
</g>
<g>
	<g>
		<path fill="#FFFFFF" d="M1822.548,83.6c3.225,0,3.225-5,0-5S1819.323,83.6,1822.548,83.6L1822.548,83.6z"/>
	</g>
</g>
<g>
	<g>
		<path fill="#FFFFFF" d="M828.097,259.091c3.224,0,3.224-5,0-5S824.873,259.091,828.097,259.091L828.097,259.091z"/>
	</g>
</g>
<g>
	<g>
		<path fill="#FFFFFF" d="M118.633,257.591c3.224,0,3.224-5,0-5S115.409,257.591,118.633,257.591L118.633,257.591z"/>
	</g>
</g>
<g>
	<g>
		<path fill="#FFFFFF" d="M843.097,83.6c3.225,0,3.225-5,0-5S839.872,83.6,843.097,83.6L843.097,83.6z"/>
	</g>
</g>
<g>
	<g>
		<path fill="#FFFFFF" d="M1170.08,269.591c3.225,0,3.225-5,0-5S1166.855,269.591,1170.08,269.591L1170.08,269.591z"/>
	</g>
</g>
<g>
	<g>
		<path fill="#FFFFFF" d="M1252.576,77.601c3.225,0,3.225-5,0-5S1249.352,77.601,1252.576,77.601L1252.576,77.601z"/>
	</g>
</g>
<g>
	<g>
		<path fill="#FFFFFF" d="M568.61,113.599c3.225,0,3.225-5,0-5S565.386,113.599,568.61,113.599L568.61,113.599z"/>
	</g>
</g>
<g>
	<g>
		<path fill="#FFFFFF" d="M535.612,306.589c2.58,0,2.58-4,0-4S533.032,306.589,535.612,306.589L535.612,306.589z"/>
	</g>
</g>
<g>
	<g>
		<path fill="#FFFFFF" d="M789.099,351.087c1.935,0,1.935-3,0-3S787.165,351.087,789.099,351.087L789.099,351.087z"/>
	</g>
</g>
<g>
	<g>
		<path fill="#FFFFFF" d="M276.125,382.585c1.935,0,1.935-3,0-3S274.19,382.585,276.125,382.585L276.125,382.585z"/>
	</g>
</g>
<g>
	<g>
		<path fill="#FFFFFF" d="M1429.567,472.081c1.29,0,1.29-2,0-2S1428.277,472.081,1429.567,472.081L1429.567,472.081z"/>
	</g>
</g>
<g>
	<g>
		<path fill="#FFFFFF" d="M1786.549,443.582c1.29,0,1.29-2,0-2S1785.259,443.582,1786.549,443.582L1786.549,443.582z"/>
	</g>
</g>
<g>
	<g>
		<path fill="#FFFFFF" d="M906.093,460.081c1.29,0,1.29-2,0-2S904.804,460.081,906.093,460.081L906.093,460.081z"/>
	</g>
</g>
<g>
	<g>
		<path fill="#FFFFFF" d="M441.117,455.581c1.29,0,1.29-2,0-2S439.827,455.581,441.117,455.581L441.117,455.581z"/>
	</g>
</g>
<g opacity="0.5">
	<g>
		<path fill="#FFFFFF" d="M549.111,368.086c2.58,0,2.58-4,0-4S546.532,368.086,549.111,368.086L549.111,368.086z"/>
	</g>
</g>
<g opacity="0.5">
	<g>
		<path fill="#FFFFFF" d="M1168.58,369.586c2.579,0,2.579-4,0-4S1166.001,369.586,1168.58,369.586L1168.58,369.586z"/>
	</g>
</g>
<g opacity="0.5">
	<g>
		<path fill="#FFFFFF" d="M51.136,396.584c2.58,0,2.58-4,0-4S48.557,396.584,51.136,396.584L51.136,396.584z"/>
	</g>
</g>
<g opacity="0.5">
	<g>
		<path fill="#FFFFFF" d="M1699.554,389.085c2.579,0,2.579-4,0-4S1696.975,389.085,1699.554,389.085L1699.554,389.085z"/>
	</g>
</g>
<g opacity="0.5">
	<g>
		<path fill="#FFFFFF" d="M1912.543,309.589c2.579,0,2.579-4,0-4S1909.964,309.589,1912.543,309.589L1912.543,309.589z"/>
	</g>
</g>
<g opacity="0.5">
	<g>
		<path fill="#FFFFFF" d="M1368.07,306.589c2.579,0,2.579-4,0-4S1365.491,306.589,1368.07,306.589L1368.07,306.589z"/>
	</g>
</g>
<g opacity="0.5">
	<g>
		<path fill="#FFFFFF" d="M1569.061,302.089c2.579,0,2.579-4,0-4S1566.481,302.089,1569.061,302.089L1569.061,302.089z"/>
	</g>
</g>
<g opacity="0.2">
	<g>
		<path fill="#FFFFFF" d="M441.117,425.083c2.58,0,2.58-4,0-4S438.537,425.083,441.117,425.083L441.117,425.083z"/>
	</g>
</g>
<g opacity="0.2">
	<g>
		<path fill="#FFFFFF" d="M252.126,440.082c2.58,0,2.58-4,0-4S249.546,440.082,252.126,440.082L252.126,440.082z"/>
	</g>
</g>
<g opacity="0.2">
	<g>
		<path fill="#FFFFFF" d="M126.132,327.588c2.58,0,2.58-4,0-4S123.553,327.588,126.132,327.588L126.132,327.588z"/>
	</g>
</g>
<g opacity="0.2">
	<g>
		<path fill="#FFFFFF" d="M442.617,330.588c2.58,0,2.58-4,0-4S440.037,330.588,442.617,330.588L442.617,330.588z"/>
	</g>
</g>
<g opacity="0.2">
	<g>
		<path fill="#FFFFFF" d="M909.093,416.083c2.58,0,2.58-4,0-4S906.514,416.083,909.093,416.083L909.093,416.083z"/>
	</g>
</g>
<g opacity="0.2">
	<g>
		<path fill="#FFFFFF" d="M1282.574,410.084c2.579,0,2.579-4,0-4S1279.995,410.084,1282.574,410.084L1282.574,410.084z"/>
	</g>
</g>
<g opacity="0.2">
	<g>
		<path fill="#FFFFFF" d="M1083.084,372.586c2.579,0,2.579-4,0-4S1080.505,372.586,1083.084,372.586L1083.084,372.586z"/>
	</g>
</g>
<g opacity="0.2">
	<g>
		<path fill="#FFFFFF" d="M1617.058,386.085c2.579,0,2.579-4,0-4S1614.479,386.085,1617.058,386.085L1617.058,386.085z"/>
	</g>
</g>
<g opacity="0.2">
	<g>
		<path fill="#FFFFFF" d="M1869.045,429.583c2.579,0,2.579-4,0-4S1866.466,429.583,1869.045,429.583L1869.045,429.583z"/>
	</g>
</g>
<g opacity="0.2">
	<g>
		<path fill="#FFFFFF" d="M246.126,344.087c2.58,0,2.58-4,0-4S243.547,344.087,246.126,344.087L246.126,344.087z"/>
	</g>
</g>
<g opacity="0.2">
	<g>
		<path fill="#FFFFFF" d="M697.604,369.586c2.58,0,2.58-4,0-4S695.024,369.586,697.604,369.586L697.604,369.586z"/>
	</g>
</g>
<g opacity="0.2">
	<g>
		<path fill="#FFFFFF" d="M1522.563,303.589c2.579,0,2.579-4,0-4S1519.983,303.589,1522.563,303.589L1522.563,303.589z"/>
	</g>
</g>
<g opacity="0.5">
	<g>
		<path fill="#FFFFFF" d="M481.615,153.597c2.58,0,2.58-4,0-4S479.035,153.597,481.615,153.597L481.615,153.597z"/>
	</g>
</g>
<g opacity="0.5">
	<g>
		<path fill="#FFFFFF" d="M171.13,177.595c2.58,0,2.58-4,0-4S168.55,177.595,171.13,177.595L171.13,177.595z"/>
	</g>
</g>
<g opacity="0.5">
	<g>
		<path fill="#FFFFFF" d="M871.595,183.595c2.58,0,2.58-4,0-4S869.016,183.595,871.595,183.595L871.595,183.595z"/>
	</g>
</g>
<g opacity="0.5">
	<g>
		<path fill="#FFFFFF" d="M682.604,251.092c2.58,0,2.58-4,0-4S680.025,251.092,682.604,251.092L682.604,251.092z"/>
	</g>
</g>
<g opacity="0.5">
	<g>
		<path fill="#FFFFFF" d="M979.59,231.593c2.579,0,2.579-4,0-4S977.011,231.593,979.59,231.593L979.59,231.593z"/>
	</g>
</g>
<g opacity="0.5">
	<g>
		<path fill="#FFFFFF" d="M1288.574,209.094c2.579,0,2.579-4,0-4S1285.995,209.094,1288.574,209.094L1288.574,209.094z"/>
	</g>
</g>
<g opacity="0.5">
	<g>
		<path fill="#FFFFFF" d="M1137.082,63.601c2.579,0,2.579-4,0-4S1134.503,63.601,1137.082,63.601L1137.082,63.601z"/>
	</g>
</g>
<g opacity="0.5">
	<g>
		<path fill="#FFFFFF" d="M673.605,59.102c2.58,0,2.58-4,0-4S671.025,59.102,673.605,59.102L673.605,59.102z"/>
	</g>
</g>
<g opacity="0.5">
	<g>
		<path fill="#FFFFFF" d="M43.637,188.095c2.58,0,2.58-4,0-4S41.057,188.095,43.637,188.095L43.637,188.095z"/>
	</g>
</g>
<g opacity="0.5">
	<g>
		<path fill="#FFFFFF" d="M1494.064,170.096c2.579,0,2.579-4,0-4S1491.485,170.096,1494.064,170.096L1494.064,170.096z"/>
	</g>
</g>
<g opacity="0.5">
	<g>
		<path fill="#FFFFFF" d="M1413.068,65.101c2.579,0,2.579-4,0-4S1410.489,65.101,1413.068,65.101L1413.068,65.101z"/>
	</g>
</g>
<g opacity="0.5">
	<g>
		<path fill="#FFFFFF" d="M1840.547,288.59c2.579,0,2.579-4,0-4S1837.968,288.59,1840.547,288.59L1840.547,288.59z"/>
	</g>
</g>
<g opacity="0.5">
	<g>
		<path fill="#FFFFFF" d="M268.625,218.093c2.58,0,2.58-4,0-4S266.045,218.093,268.625,218.093L268.625,218.093z"/>
	</g>
</g>
<g opacity="0.5">
	<g>
		<path fill="#FFFFFF" d="M553.611,216.593c2.58,0,2.58-4,0-4S551.031,216.593,553.611,216.593L553.611,216.593z"/>
	</g>
</g>
<g opacity="0.5">
	<g>
		<path fill="#FFFFFF" d="M979.59,303.589c2.579,0,2.579-4,0-4S977.011,303.589,979.59,303.589L979.59,303.589z"/>
	</g>
</g>
<g opacity="0.5">
	<g>
		<path fill="#FFFFFF" d="M1458.065,119.098c2.579,0,2.579-4,0-4S1455.486,119.098,1458.065,119.098L1458.065,119.098z"/>
	</g>
</g>
<radialGradient id="SVGID_2_" cx="1675.6787" cy="143.3472" r="92.2698" gradientUnits="userSpaceOnUse">
	<stop  offset="0" style="stop-color:#FFFFFF"/>
	<stop  offset="0.3875" style="stop-color:#FDFDFE;stop-opacity:0.6125"/>
	<stop  offset="0.527" style="stop-color:#F7F6FA;stop-opacity:0.473"/>
	<stop  offset="0.6266" style="stop-color:#ECEBF4;stop-opacity:0.3734"/>
	<stop  offset="0.707" style="stop-color:#DCDAEB;stop-opacity:0.293"/>
	<stop  offset="0.7759" style="stop-color:#C8C4DE;stop-opacity:0.2241"/>
	<stop  offset="0.837" style="stop-color:#AFA8D0;stop-opacity:0.163"/>
	<stop  offset="0.8922" style="stop-color:#9188BE;stop-opacity:0.1078"/>
	<stop  offset="0.9429" style="stop-color:#6E62A9;stop-opacity:0.0571"/>
	<stop  offset="0.9881" style="stop-color:#483993;stop-opacity:0.0119"/>
	<stop  offset="1" style="stop-color:#3D2D8C;stop-opacity:0"/>
</radialGradient>
<ellipse fill="url(#SVGID_2_)" cx="1675.679" cy="143.347" rx="92.294" ry="92.246"/>
<ellipse fill="#FFFFFF" cx="1675.679" cy="143.347" rx="68.282" ry="68.247"/>
<path fill="#EAEAEA" d="M1716.301,88.494c11.56,12.225,18.66,28.706,18.66,46.853c0,37.691-30.571,68.247-68.283,68.247
	c-15.218,0-29.27-4.98-40.621-13.393c12.447,13.165,30.067,21.393,49.621,21.393c37.712,0,68.283-30.555,68.283-68.247
	C1743.961,120.866,1733.081,100.929,1716.301,88.494z"/>
<circle fill="#EAEAEA" cx="1666.339" cy="123.339" r="9.339"/>
<circle fill="#EAEAEA" cx="1707.167" cy="113.167" r="14.5"/>
<circle fill="#EAEAEA" cx="1641.453" cy="174.881" r="6.786"/>
<circle fill="#EAEAEA" cx="1691.423" cy="167.744" r="15.744"/>
<circle fill="#EAEAEA" cx="1653.738" cy="150.833" r="5.5"/>
<circle fill="#EAEAEA" cx="1632.333" cy="136.333" r="11.333"/>
<circle fill="#EAEAEA" cx="1676.167" cy="98.5" r="11.5"/>
<circle fill="#EAEAEA" cx="1644.203" cy="108.203" r="9.536"/>
<circle fill="#EAEAEA" cx="1693.001" cy="138.013" r="5.334"/>
<circle fill="#EAEAEA" cx="1665.786" cy="186.547" r="6.547"/>
<circle fill="#EAEAEA" cx="1720.327" cy="146.34" r="8.327"/>
<path display="none" fill="#282828" d="M-0.023,452.398c0,0,138.151-81.068,177.149-70.928s641.97,85.621,641.97,85.621
	s151.493,12.391,233.989-85.629c29.998-41.688,281.987,94.639,469.478,94.639c0,0,28.642-5.634,60.814-50.7
	C1615.55,380.334,1852,488.493,1920,452.44v88.573L0.015,541.055L-0.023,452.398z"/>
</svg>
