<?xml version="1.0" encoding="utf-8"?>
<!-- Generator: Adobe Illustrator 16.0.0, SVG Export Plug-In . SVG Version: 6.00 Build 0)  -->
<!DOCTYPE svg PUBLIC "-//W3C//DTD SVG 1.1//EN" "http://www.w3.org/Graphics/SVG/1.1/DTD/svg11.dtd">
<svg version="1.1" id="Layer_1" xmlns="http://www.w3.org/2000/svg" xmlns:xlink="http://www.w3.org/1999/xlink" x="0px" y="0px"
	 width="1920px" height="540px" viewBox="0 0 1920 540" enable-background="new 0 0 1920 540" xml:space="preserve">
<polygon fill="#282828" points="84,540 0,540 0,264 84,239 "/>
<polygon fill="#282828" points="112,540 63,540 63,322 112,336 "/>
<rect x="127" y="97" fill="#282828" width="26" height="443"/>
<rect x="145" y="164" fill="#282828" width="51" height="376"/>
<polygon fill="#282828" points="210,540 188,540 188,193 241.403,155 "/>
<path fill="#282828" d="M266.143,97c0,0,125.909,224.104-0.065,443C582.961,540,374,540,374,540s-110.52-182.402,5.065-443"/>
<polygon fill="#282828" points="345,85 297,74.48 297,97 345,97 "/>
<rect x="305" y="239" fill="#282828" width="40" height="178"/>
<polygon fill="#282828" points="275,540 282,540 282,360 275,322 "/>
<rect x="258" y="417" fill="#282828" width="17" height="123"/>
<rect x="249" y="455" fill="#282828" width="9" height="85"/>
<polygon fill="#282828" points="363,540 354,540 354,302 363,275.779 "/>
<rect x="363" y="408" fill="#282828" width="11" height="132"/>
<rect x="374" y="455" fill="#282828" width="12" height="85"/>
<polygon fill="#282828" points="325,52 317,42.013 317,130 325,130 "/>
<polygon fill="#282828" points="442,540 399,540 399,193 442,212 "/>
<polygon fill="#282828" points="452,86.006 420,104 420,217 452,217 "/>
<polygon fill="#282828" points="474,540 448,540 448,193 474,177.078 "/>
<rect x="474" y="254" fill="#282828" width="21" height="286"/>
<rect x="495" y="461" fill="#282828" width="39" height="79"/>
<polygon fill="#282828" points="484,86.006 514,104 514,474 484,474 "/>
<rect x="442" y="130" fill="#282828" width="53" height="6"/>
<polygon fill="#282828" points="566,540 547,540 547,104 566,217 "/>
<polygon fill="#282828" points="601,540 556,540 556,270 601,193 "/>
<rect x="578" y="367" fill="#282828" width="53" height="173"/>
<rect x="604" y="454" fill="#282828" width="44" height="86"/>
<polygon fill="#282828" points="679,540 658,540 658,184.87 679,193 "/>
<polygon fill="#282828" points="709,169 668,155 668,540 709,540 "/>
<polygon fill="#282828" points="734,136 688,121.234 688,540 734,540 "/>
<polygon fill="#282828" points="752,86.006 709,104 709,540 752,540 "/>
<path fill="#282828" d="M900,540H780c0,0,10.545-385,60-385S900,540,900,540z"/>
<polygon fill="#282828" points="780,540 810,540 810,339 780,319 "/>
<polygon fill="#282828" points="791,348 828,348 828,206 791,247 "/>
<polygon fill="#282828" points="889,348 848,348 848,206 889,155 "/>
<polygon fill="#282828" points="900,540 868,540 868,348 900,373 "/>
<rect x="838" y="86" fill="#282828" width="4" height="233"/>
<path fill="#282828" d="M940,176c0-6.627-5.373-12-12-12h-1c-6.627,0-12,5.373-12,12v352c0,6.627,5.373,12,12,12h1
	c6.627,0,12-5.373,12-12V176z"/>
<path fill="#282828" d="M951,141.795c0-6.515-5.281-11.795-11.795-11.795h-0.409c-6.514,0-11.795,5.281-11.795,11.795v85.409
	c0,6.515,5.281,11.795,11.795,11.795h0.409c6.514,0,11.795-5.281,11.795-11.795V141.795z"/>
<path fill="#282828" d="M961,90.75c0-2.624-2.126-4.75-4.75-4.75h-0.5c-2.624,0-4.75,2.126-4.75,4.75v88.5
	c0,2.624,2.126,4.75,4.75,4.75h0.5c2.624,0,4.75-2.126,4.75-4.75V90.75z"/>
<polygon fill="#282828" points="927,177 1038,136 1038,540 927,540 "/>
<rect x="1031" y="217" fill="#282828" width="19" height="323"/>
<rect x="1040" y="264" fill="#282828" width="19" height="276"/>
<rect x="1050" y="280" fill="#282828" width="20" height="260"/>
<polygon fill="#282828" points="1240.576,86.006 1091,152 1091,540 1191,540 "/>
<rect x="884" y="455" fill="#282828" width="44" height="85"/>
<rect x="1185" y="474" fill="#282828" width="24" height="66"/>
<rect x="1197" y="296" fill="#282828" width="27" height="94"/>
<rect x="1197" y="164" fill="#282828" width="38" height="88"/>
<rect x="1082" y="177" fill="#282828" width="18" height="26"/>
<rect x="1082" y="239" fill="#282828" width="18" height="25"/>
<rect x="1082" y="313" fill="#282828" width="18" height="25"/>
<rect x="1070" y="417" fill="#282828" width="36" height="14"/>
<rect x="1070" y="461" fill="#282828" width="36" height="13"/>
<rect x="1059" y="497" fill="#282828" width="47" height="10"/>
<rect x="848" y="231" fill="#282828" width="141" height="2"/>
<rect x="877" y="252" fill="#282828" width="51" height="2"/>
<rect x="639" y="474" fill="#282828" width="19" height="5"/>
<rect x="278" y="379" fill="#282828" width="80" height="11"/>
<rect x="101" y="362" fill="#282828" width="26" height="5"/>
<rect x="101" y="390" fill="#282828" width="39" height="7"/>
<rect x="101" y="474" fill="#282828" width="44" height="5"/>
<rect x="1271" y="130" fill="#282828" width="42" height="410"/>
<rect x="1257" y="266" fill="#282828" width="24" height="274"/>
<rect x="1241" y="390" fill="#282828" width="16" height="150"/>
<rect x="1307" y="164" fill="#282828" width="16" height="376"/>
<rect x="1323" y="254" fill="#282828" width="14" height="286"/>
<rect x="1330" y="444" fill="#282828" width="20" height="96"/>
<path fill="#282828" d="M1457,540h-81c0,0-4.062-308.603,81-410C1457,294.089,1457,540,1457,540z"/>
<rect x="1418" y="164" fill="#282828" width="30" height="42"/>
<rect x="1395" y="239" fill="#282828" width="23" height="104"/>
<rect x="1376" y="379" fill="#282828" width="19" height="161"/>
<rect x="1433" y="379" fill="#282828" width="37" height="161"/>
<rect x="1442" y="239" fill="#282828" width="28" height="120"/>
<rect x="1448" y="164" fill="#282828" width="22" height="67"/>
<rect x="1418" y="104" fill="#282828" width="7" height="60"/>
<rect x="1395" y="155" fill="#282828" width="5" height="97"/>
<rect x="1376" y="280" fill="#282828" width="9" height="110"/>
<rect x="1315" y="406" fill="#282828" width="70" height="4"/>
<rect x="1323" y="276" fill="#282828" width="77" height="4"/>
<rect x="1330" y="314" fill="#282828" width="81" height="4"/>
<rect x="1323" y="348" fill="#282828" width="88" height="4"/>
<polygon fill="#282828" points="1511,316 1492,308 1492,540 1511,540 "/>
<polygon fill="#282828" points="1516,198 1501,180 1501,397 1516,397 "/>
<polygon fill="#282828" points="1516,343 1583,299 1583,540 1516,540 "/>
<polygon fill="#282828" points="1516,254 1565.5,231 1565,362 1516,362 "/>
<polygon fill="#282828" points="1574,359 1557,359 1557,291 1574,272 "/>
<rect x="228" y="431" fill="#282828" width="13" height="109"/>
<rect x="228" y="486" fill="#282828" width="25" height="6"/>
<rect x="386" y="474" fill="#282828" width="21" height="3"/>
<circle fill="none" stroke="#282828" stroke-width="4" stroke-miterlimit="10" cx="468.408" cy="81.914" r="16.408"/>
<rect x="618" y="385" fill="#282828" width="47" height="3"/>
<rect x="618" y="397" fill="#282828" width="47" height="2"/>
<rect x="596" y="359" fill="#282828" width="80" height="3"/>
<rect x="598" y="252" fill="#282828" width="74" height="2"/>
<rect x="1485" y="431" fill="#282828" width="16" height="109"/>
<rect x="1574" y="430" fill="#282828" width="19" height="110"/>
<rect x="1588" y="455" fill="#282828" width="11" height="85"/>
<polygon fill="#282828" points="1669,540 1623,540 1623,134 1675,180 "/>
<polygon fill="#282828" points="1731,540 1688,540 1675,180 1731,136 "/>
<rect x="1660" y="478" fill="#282828" width="26" height="3"/>
<rect x="1660" y="458" fill="#282828" width="26" height="3"/>
<rect x="1660" y="434" fill="#282828" width="26" height="3"/>
<rect x="1660" y="415" fill="#282828" width="26" height="3"/>
<rect x="1660" y="395" fill="#282828" width="26" height="3"/>
<rect x="1660" y="377" fill="#282828" width="26" height="3"/>
<rect x="1660" y="357" fill="#282828" width="26" height="3"/>
<rect x="1662" y="336" fill="#282828" width="26" height="3"/>
<rect x="1660" y="314" fill="#282828" width="26" height="3"/>
<rect x="1660" y="294" fill="#282828" width="26" height="3"/>
<rect x="1660" y="274" fill="#282828" width="26" height="3"/>
<rect x="1662" y="252" fill="#282828" width="26" height="3"/>
<polygon fill="#282828" points="1641,158 1630,158 1630,144 1641,134 "/>
<polygon fill="#282828" points="1656,171 1645,171 1645,157 1656,151 "/>
<polygon fill="#282828" points="1706,171 1695,171 1695,151 1706,157 "/>
<polygon fill="#282828" points="1724,158 1713,158 1713,136 1724,144 "/>
<rect x="1616" y="299" fill="#282828" width="14" height="241"/>
<rect x="1579" y="326" fill="#282828" width="41" height="4"/>
<rect x="1579" y="350" fill="#282828" width="41" height="4"/>
<rect x="1579" y="378" fill="#282828" width="41" height="4"/>
<rect x="1724" y="215" fill="#282828" width="15" height="325"/>
<rect x="1734" y="239" fill="#282828" width="13" height="301"/>
<rect x="1740" y="264" fill="#282828" width="15" height="276"/>
<rect x="1747" y="338" fill="#282828" width="21" height="202"/>
<rect x="1757" y="350" fill="#282828" width="25" height="148"/>
<rect x="1772" y="424" fill="#282828" width="22" height="116"/>
<rect x="1612" y="406" fill="#282828" width="4" height="134"/>
<path fill="#282828" d="M1811,540h70c0,0-33.334-262.334-22.667-393C1838,147,1811,540,1811,540z"/>
<path fill="#282828" d="M1853,177c0,0-42-3-42,13s42,13,42,13"/>
<rect x="1721" y="289" fill="#282828" width="125" height="5"/>
<rect x="1724" y="305" fill="#282828" width="122" height="3"/>
<rect x="1731" y="323" fill="#282828" width="109" height="3"/>
<polygon fill="#282828" points="1868,540 1853,540 1853,255 1868,239 "/>
<rect x="1865" y="343" fill="#282828" width="16" height="197"/>
<rect x="1873" y="382" fill="#282828" width="17" height="158"/>
<rect x="1881" y="402" fill="#282828" width="17" height="138"/>
<rect x="1893" y="424" fill="#282828" width="10" height="116"/>
<rect x="1899" y="448" fill="#282828" width="11" height="92"/>
<rect x="1656" y="180" fill="#282828" width="39" height="74"/>
<rect x="1656" y="294" fill="#282828" width="62" height="22"/>
<rect x="1641" y="374" fill="#282828" width="83" height="21"/>
<rect x="1645" y="460" fill="#282828" width="61" height="34"/>
<rect x="23" y="328" fill="#FFFFFF" width="9" height="212"/>
<rect x="87" y="352" fill="#FFFFFF" width="5" height="188"/>
<rect x="140" y="193" fill="#FFFFFF" width="8" height="347"/>
<rect x="192" y="213" fill="#FFFFFF" width="4" height="327"/>
<rect x="322" y="265" fill="#FFFFFF" width="6" height="107"/>
<rect x="601" y="394" fill="#FFFFFF" width="8" height="146"/>
<rect x="688" y="224" fill="#FFFFFF" width="7" height="316"/>
<rect x="868" y="379" fill="#FFFFFF" width="9" height="161"/>
<rect x="951" y="213" fill="#FFFFFF" width="10" height="327"/>
<rect x="1015" y="431" fill="#FFFFFF" width="16" height="109"/>
<rect x="1121" y="177" fill="#FFFFFF" width="6" height="363"/>
<rect x="1271" y="305" fill="#FFFFFF" width="7" height="235"/>
<rect x="1315" y="305" fill="#FFFFFF" width="8" height="235"/>
<rect x="1635" y="239" fill="#FFFFFF" width="6" height="301"/>
<rect x="1713" y="374" fill="#FFFFFF" width="8" height="166"/>
<rect x="1464" y="168" fill="#282828" width="171" height="3"/>
<rect x="1232" y="198" fill="#282828" width="227" height="5"/>
</svg>
