<?xml version="1.0" encoding="utf-8"?>
<!-- Generator: Adobe Illustrator 16.0.0, SVG Export Plug-In . SVG Version: 6.00 Build 0)  -->
<!DOCTYPE svg PUBLIC "-//W3C//DTD SVG 1.1//EN" "http://www.w3.org/Graphics/SVG/1.1/DTD/svg11.dtd">
<svg version="1.1" id="Layer_1" xmlns="http://www.w3.org/2000/svg" xmlns:xlink="http://www.w3.org/1999/xlink" x="0px" y="0px"
	 width="500px" height="500px" viewBox="0 0 500 500" enable-background="new 0 0 500 500" xml:space="preserve">
<path fill="#8C8C8C" d="M433.07,245.482c0,61.591-81.767,111.52-182.63,111.52c-100.865,0-182.631-49.929-182.631-111.52
	c0-61.59,81.766-16.995,182.631-16.995C351.304,228.487,433.07,183.893,433.07,245.482z"/>
<g>
	<path fill="#686868" d="M284.444,228.487c49.019,0,93.521-10.531,126.325-14.29c-28.429-6.116-81.398,10.998-143.327,13.878
		C273.042,228.336,278.711,228.487,284.444,228.487z"/>
	<path fill="#686868" d="M101.813,245.482c0-19.362,8.086-28.226,22.3-31.285c-34.696-3.975-56.304-0.374-56.304,31.285
		c0,61.591,81.766,111.52,182.631,111.52c5.734,0,11.403-0.17,17.002-0.484C174.551,351.279,101.813,303.572,101.813,245.482z"/>
</g>
<ellipse fill="#AF6E2E" cx="250.44" cy="245.482" rx="248.063" ry="72.863"/>
<path fill="#895612" d="M101.813,245.482c0-37.712,49.11-68.731,174.131-72.482c-8.386-0.251-16.895-0.381-25.504-0.381
	c-137.001,0-248.063,32.623-248.063,72.863c0,40.241,111.062,72.863,248.063,72.863c8.609,0,17.118-0.129,25.504-0.38
	C150.924,314.216,101.813,283.194,101.813,245.482z"/>
<path fill="#7BC6B1" d="M348.589,187.075c0,54.207-43.225,52.451-97.431,52.451c-54.207,0-98.867,1.756-98.867-52.451
	c0-54.207,43.943-98.149,98.149-98.149C304.647,88.926,348.589,132.869,348.589,187.075z"/>
<path fill="#48AA90" d="M167.404,194.631c0-54.206,43.943-98.149,98.149-98.149c12.792,0,24.999,2.473,36.204,6.925
	c-14.932-9.179-32.504-14.481-51.317-14.481c-54.206,0-98.149,43.942-98.149,98.149c0,28.088,12.01,41.131,31.105,47.198
	C173.309,226.584,167.404,214.306,167.404,194.631z"/>
<g id="Lights">
	<circle fill="#AFAFAE" cx="29.954" cy="244.627" r="8.443"/>
	<circle fill="#EAEAEA" cx="470.114" cy="244.627" r="8.443"/>
	<circle fill="#EAEAEA" cx="258.535" cy="293.743" r="8.443"/>
	<path fill="#EAEAEA" d="M344.431,289.964c0,4.665-3.781,8.445-8.444,8.445c-4.661,0-8.44-3.78-8.44-8.445
		c0-4.661,3.779-8.44,8.44-8.44C340.649,281.523,344.431,285.303,344.431,289.964z"/>
	<path fill="#EAEAEA" d="M183.857,289.964c0,4.665-3.78,8.445-8.443,8.445c-4.663,0-8.442-3.78-8.442-8.445
		c0-4.661,3.78-8.44,8.442-8.44C180.078,281.523,183.857,285.303,183.857,289.964z"/>
	<circle fill="#EAEAEA" cx="407.773" cy="276.741" r="8.443"/>
	<circle fill="#EAEAEA" cx="406.151" cy="210.89" r="6.821"/>
	<circle fill="#AFAFAE" cx="88.516" cy="276.741" r="8.443"/>
	<circle fill="#AFAFAE" cx="86.907" cy="210.903" r="6.834"/>
</g>
</svg>
