<?xml version="1.0" encoding="utf-8"?>
<!-- Generator: Adobe Illustrator 16.0.0, SVG Export Plug-In . SVG Version: 6.00 Build 0)  -->
<!DOCTYPE svg PUBLIC "-//W3C//DTD SVG 1.1//EN" "http://www.w3.org/Graphics/SVG/1.1/DTD/svg11.dtd">
<svg version="1.1" id="Layer_1" xmlns="http://www.w3.org/2000/svg" xmlns:xlink="http://www.w3.org/1999/xlink" x="0px" y="0px"
	 width="500px" height="500px" viewBox="0 0 500 500" enable-background="new 0 0 500 500" xml:space="preserve">
<path fill="#8C8C8C" d="M433.07,245.482c0,61.591-81.768,111.52-182.63,111.52c-100.865,0-182.631-49.929-182.631-111.52
	c0-61.59,81.766-16.995,182.631-16.995C351.304,228.487,433.07,183.893,433.07,245.482z"/>
<g>
	<path fill="#686868" d="M284.443,228.487c49.02,0,93.521-10.531,126.325-14.29c-28.429-6.116-81.397,10.998-143.327,13.878
		C273.042,228.336,278.711,228.487,284.443,228.487z"/>
	<path fill="#686868" d="M101.813,245.482c0-19.362,8.086-28.226,22.3-31.285c-34.696-3.975-56.304-0.374-56.304,31.285
		c0,61.591,81.766,111.52,182.631,111.52c5.734,0,11.403-0.17,17.001-0.484C174.551,351.279,101.813,303.572,101.813,245.482z"/>
</g>
<ellipse fill="#1F59DB" cx="250.44" cy="245.482" rx="248.063" ry="72.863"/>
<path fill="#202696" d="M53.383,245.482c0-37.712,97.541-68.731,222.563-72.482c-8.387-0.251-16.896-0.381-25.504-0.381
	c-137.001,0-248.063,32.623-248.063,72.863c0,40.241,111.062,72.864,248.063,72.864c8.609,0,17.118-0.13,25.504-0.381
	C150.924,314.216,53.383,283.193,53.383,245.482z"/>
<path fill="#98D1ED" d="M348.589,187.075c0,54.207-43.226,52.451-97.431,52.451c-54.207,0-98.867,1.756-98.867-52.451
	s43.943-98.149,98.149-98.149C304.646,88.926,348.589,132.869,348.589,187.075z"/>
<path fill="#73AEBC" d="M167.404,194.631c0-54.206,43.943-98.149,98.149-98.149c12.793,0,24.999,2.473,36.204,6.925
	c-14.932-9.179-32.504-14.481-51.317-14.481c-54.206,0-98.149,43.942-98.149,98.149c0,28.088,12.01,41.131,31.105,47.198
	C173.309,226.584,167.404,214.306,167.404,194.631z"/>
<g id="Lights">
	<circle fill="#B2AE18" cx="29.954" cy="244.627" r="8.443"/>
	<circle fill="#DDDD14" cx="470.114" cy="244.627" r="8.443"/>
	<circle fill="#DDDD14" cx="258.535" cy="293.743" r="8.443"/>
	<path fill="#DDDD14" d="M344.431,289.964c0,4.665-3.78,8.445-8.443,8.445c-4.661,0-8.44-3.78-8.44-8.445
		c0-4.661,3.779-8.44,8.44-8.44C340.649,281.523,344.431,285.303,344.431,289.964z"/>
	<path fill="#DDDD14" d="M183.857,289.964c0,4.665-3.78,8.445-8.443,8.445s-8.442-3.78-8.442-8.445c0-4.661,3.78-8.44,8.442-8.44
		C180.078,281.523,183.857,285.303,183.857,289.964z"/>
	<circle fill="#DDDD14" cx="407.773" cy="276.741" r="8.443"/>
	<circle fill="#DDDD14" cx="406.151" cy="210.89" r="6.821"/>
	<circle fill="#CEC917" cx="88.516" cy="276.741" r="8.443"/>
	<circle fill="#B2AE18" cx="86.907" cy="210.903" r="6.834"/>
</g>
<g opacity="0.5">
	<path fill="#8ACB94" d="M285.617,187.078l-14.395,21.516c-8.369,12.51-26.761,12.51-35.13,0l-14.396-21.516
		c-10.206-15.254-8.208-35.595,4.77-48.572l0,0c15.017-15.017,39.363-15.017,54.381,0l0,0
		C293.826,151.483,295.823,171.824,285.617,187.078z"/>
	<path fill="#73BA8B" d="M286.193,145.196c3.762,11.049,2.404,23.563-4.438,33.791l-14.396,21.516
		c-8.367,12.509-26.758,12.509-35.127,0l-14.396-21.516c-0.201-0.301-0.396-0.604-0.587-0.909c1.063,3.123,2.543,6.15,4.449,9
		l14.396,21.516c8.369,12.51,26.759,12.51,35.128,0l14.396-21.516C294.203,174.246,294.15,157.816,286.193,145.196z"/>
	<path fill="#00445D" d="M253.658,219.769c-7.667,0-14.79-3.805-19.054-10.178l-14.396-21.516
		c-5.166-7.722-7.511-17.066-6.603-26.312c0.908-9.246,5.025-17.955,11.595-24.525c15.692-15.691,41.224-15.691,56.916,0
		c6.567,6.57,10.687,15.279,11.594,24.525c0.908,9.246-1.437,18.59-6.603,26.312l-14.396,21.516
		C268.449,215.964,261.326,219.769,253.658,219.769z M253.658,129.052c-9.388,0-18.776,3.574-25.923,10.721
		c-12.334,12.335-14.247,31.811-4.547,46.309l14.396,21.517c3.597,5.376,9.606,8.586,16.075,8.586
		c6.469,0,12.479-3.209,16.075-8.586l14.396-21.517c9.699-14.498,7.787-33.974-4.548-46.309
		C272.436,132.626,263.047,129.052,253.658,129.052z"/>
	<g>
		<path fill="#C9EAFB" d="M249.092,174.092l-1.134,0.318c-11.474,3.212-21.636-1.678-26.465-12.733l0,0
			c-0.278-0.636,0.186-1.632,0.846-1.817l1.135-0.318c11.473-3.213,21.635,1.677,26.464,12.733l0,0
			C250.217,172.912,249.753,173.908,249.092,174.092z"/>
		<path fill="#A1D3EB" d="M249.938,172.275c-0.188-0.431-0.387-0.849-0.59-1.26c-10.101,1.928-18.937-2.536-23.626-12
			c-0.743,0.142-1.492,0.316-2.248,0.527l-1.135,0.318c-0.66,0.185-1.124,1.181-0.846,1.817l0,0
			c4.829,11.056,14.991,15.946,26.465,12.733l1.134-0.318C249.753,173.908,250.217,172.912,249.938,172.275L249.938,172.275z"/>
		<path fill="#C9EAFB" d="M258.225,174.092l1.135,0.318c11.474,3.212,21.637-1.678,26.465-12.733l0,0
			c0.277-0.636-0.186-1.632-0.848-1.817l-1.135-0.318c-11.473-3.213-21.635,1.677-26.465,12.733l0,0
			C257.1,172.912,257.564,173.908,258.225,174.092z"/>
		<path fill="#A1D3EB" d="M284.977,159.86l-1.135-0.318c-0.699-0.196-1.393-0.36-2.081-0.497
			c-4.671,9.749-13.668,14.338-23.958,12.305c-0.145,0.304-0.287,0.61-0.426,0.924l0,0c-0.277,0.636,0.188,1.632,0.848,1.816
			l1.135,0.318c11.474,3.212,21.637-1.678,26.465-12.733l0,0C286.102,161.041,285.639,160.045,284.977,159.86z"/>
	</g>
	<g>
		<path fill="#00445D" d="M241.159,177.173c-3.433,0-6.71-0.725-9.702-2.164c-5.049-2.429-9.062-6.792-11.605-12.615
			c-0.342-0.782-0.305-1.72,0.1-2.574c0.4-0.844,1.095-1.458,1.905-1.686l1.135-0.318c6.055-1.695,11.928-1.306,16.984,1.127
			c5.05,2.429,9.063,6.792,11.606,12.615c0.341,0.782,0.307,1.72-0.1,2.574c-0.4,0.844-1.096,1.458-1.906,1.686l-1.135,0.318
			C245.969,176.828,243.527,177.173,241.159,177.173z M223.35,161.438c4.531,9.852,13.729,14.158,24.125,11.247l0.608-0.17
			c-4.531-9.852-13.729-14.158-24.124-11.247L223.35,161.438z M248.609,172.367L248.609,172.367L248.609,172.367z"/>
		<path fill="#00445D" d="M266.158,177.173c-2.368,0-4.811-0.345-7.282-1.037l-1.136-0.318c-0.811-0.227-1.504-0.841-1.904-1.686
			c-0.404-0.854-0.441-1.792-0.102-2.574c2.543-5.824,6.558-10.186,11.606-12.615c5.056-2.433,10.929-2.822,16.983-1.127
			l1.135,0.318c0.811,0.227,1.506,0.841,1.906,1.686c0.404,0.854,0.439,1.792,0.1,2.574c-2.543,5.824-6.557,10.186-11.605,12.615
			C272.869,176.448,269.59,177.173,266.158,177.173z M259.234,172.515l0.607,0.17c2.147,0.602,4.245,0.895,6.26,0.895
			c7.737,0.001,14.271-4.326,17.864-12.142l-0.608-0.17C272.964,158.357,263.766,162.663,259.234,172.515z M258.707,172.367
			L258.707,172.367L258.707,172.367z"/>
	</g>
	<path fill="#00445D" d="M257.52,201.691h-7.723c-0.804,0-1.457-0.652-1.457-1.456c0-0.804,0.652-1.456,1.457-1.456h7.723
		c0.807,0,1.457,0.652,1.457,1.456C258.977,201.039,258.325,201.691,257.52,201.691z"/>
</g>
</svg>
